<svg width="116" height="17" viewBox="0 0 116 17" fill="none" xmlns="http://www.w3.org/2000/svg">
<circle cx="93" cy="3" r="3" fill="#FFE500"/>
<circle cx="63" cy="3" r="3" fill="#FFE500"/>
<circle cx="33" cy="3" r="3" fill="#FFE500"/>
<circle cx="3" cy="3" r="3" fill="#FFE500"/>
<circle cx="93" cy="14" r="3" fill="#FFE500"/>
<circle cx="63" cy="14" r="3" fill="#FFE500"/>
<circle cx="33" cy="14" r="3" fill="#FFE500"/>
<circle cx="3" cy="14" r="3" fill="#FFE500"/>
<circle cx="113" cy="3" r="3" fill="#FFE500"/>
<circle cx="83" cy="3" r="3" fill="#FFE500"/>
<circle cx="53" cy="3" r="3" fill="#FFE500"/>
<circle cx="23" cy="3" r="3" fill="#FFE500"/>
<circle cx="113" cy="14" r="3" fill="#FFE500"/>
<circle cx="83" cy="14" r="3" fill="#FFE500"/>
<circle cx="53" cy="14" r="3" fill="#FFE500"/>
<circle cx="23" cy="14" r="3" fill="#FFE500"/>
<circle cx="103" cy="3" r="3" fill="#FFE500"/>
<circle cx="73" cy="3" r="3" fill="#FFE500"/>
<circle cx="43" cy="3" r="3" fill="#FFE500"/>
<circle cx="13" cy="3" r="3" fill="#FFE500"/>
<circle cx="103" cy="14" r="3" fill="#FFE500"/>
<circle cx="73" cy="14" r="3" fill="#FFE500"/>
<circle cx="43" cy="14" r="3" fill="#FFE500"/>
<circle cx="13" cy="14" r="3" fill="#FFE500"/>
</svg>
