<svg width="26" height="109" viewBox="0 0 26 109" fill="none" xmlns="http://www.w3.org/2000/svg">
<circle cx="3" cy="3" r="3" fill="#003C8F"/>
<circle cx="3" cy="24" r="3" fill="#003C8F"/>
<circle cx="3" cy="45" r="3" fill="#003C8F"/>
<circle cx="3" cy="65" r="3" fill="#003C8F"/>
<circle cx="3" cy="95" r="3" fill="#003C8F"/>
<circle cx="3" cy="14" r="3" fill="#003C8F"/>
<circle cx="3" cy="35" r="3" fill="#003C8F"/>
<circle cx="3" cy="55" r="3" fill="#003C8F"/>
<circle cx="3" cy="85" r="3" fill="#003C8F"/>
<circle cx="3" cy="75" r="3" fill="#003C8F"/>
<circle cx="3" cy="106" r="3" fill="#003C8F"/>
<circle cx="23" cy="3" r="3" fill="#003C8F"/>
<circle cx="23" cy="24" r="3" fill="#003C8F"/>
<circle cx="23" cy="45" r="3" fill="#003C8F"/>
<circle cx="23" cy="65" r="3" fill="#003C8F"/>
<circle cx="23" cy="95" r="3" fill="#003C8F"/>
<circle cx="23" cy="14" r="3" fill="#003C8F"/>
<circle cx="23" cy="35" r="3" fill="#003C8F"/>
<circle cx="23" cy="55" r="3" fill="#003C8F"/>
<circle cx="23" cy="85" r="3" fill="#003C8F"/>
<circle cx="23" cy="75" r="3" fill="#003C8F"/>
<circle cx="23" cy="106" r="3" fill="#003C8F"/>
<circle cx="13" cy="3" r="3" fill="#003C8F"/>
<circle cx="13" cy="24" r="3" fill="#003C8F"/>
<circle cx="13" cy="45" r="3" fill="#003C8F"/>
<circle cx="13" cy="65" r="3" fill="#003C8F"/>
<circle cx="13" cy="95" r="3" fill="#003C8F"/>
<circle cx="13" cy="14" r="3" fill="#003C8F"/>
<circle cx="13" cy="35" r="3" fill="#003C8F"/>
<circle cx="13" cy="55" r="3" fill="#003C8F"/>
<circle cx="13" cy="85" r="3" fill="#003C8F"/>
<circle cx="13" cy="75" r="3" fill="#003C8F"/>
<circle cx="13" cy="106" r="3" fill="#003C8F"/>
</svg>
