<svg width="24" height="24" viewBox="0 0 24 24" fill="none" xmlns="http://www.w3.org/2000/svg">
<rect width="24" height="24" rx="12" fill="#4D9E0A"/>
<path d="M21.7283 10.6554L12.8091 1.71568C12.5879 1.49398 12.2885 1.39838 11.9999 1.42887C11.7114 1.39841 11.412 1.49402 11.1909 1.71569L2.27165 10.6554C1.88276 11.0451 1.88276 11.6771 2.27165 12.0669C2.66054 12.4567 3.29106 12.4567 3.67995 12.0669L12 3.72779L18.6933 10.4364H10.5901L11.7925 9.2312L12.2968 9.73666C12.6857 10.1264 13.3162 10.1264 13.7051 9.73666C14.094 9.34688 14.094 8.71492 13.7051 8.32513L12.5325 7.14978C12.3289 6.94572 12.059 6.84849 11.7923 6.85809C11.5258 6.84858 11.2561 6.94582 11.0526 7.14979L4.24868 13.9693C4.08276 14.1356 3.98763 14.346 3.96329 14.5628C3.90034 14.879 3.99112 15.2198 4.23562 15.4648L11.0395 22.2843C11.2516 22.4969 11.5357 22.5936 11.8132 22.5742C12.0907 22.5936 12.3748 22.497 12.587 22.2843L19.3909 15.4649C19.7798 15.0751 19.7798 14.4431 19.3909 14.0533C19.002 13.6635 18.3715 13.6635 17.9826 14.0533L11.8133 20.2368L6.31268 14.7236L8.59844 12.4326H20.8477C21.0169 12.4326 21.1762 12.3903 21.3158 12.3157C21.4667 12.2695 21.6089 12.1866 21.7283 12.0669C22.1172 11.6771 22.1172 11.0451 21.7283 10.6554Z" fill="white"/>
</svg>
