<svg width="72" height="72" viewBox="0 0 72 72" fill="none" xmlns="http://www.w3.org/2000/svg">
<rect width="72" height="72" rx="36" fill="#4D9E0A"/>
<path d="M57.9103 32.9715L37.8223 12.8375C37.3241 12.3382 36.6499 12.1229 35.9999 12.1915C35.35 12.1229 34.6759 12.3383 34.1778 12.8375L14.0898 32.9716C13.2139 33.8494 13.2139 35.2727 14.0898 36.1506C14.9656 37.0285 16.3857 37.0285 17.2616 36.1506L36 17.3692L51.0747 32.4784H32.8246L35.5328 29.764L36.6686 30.9024C37.5445 31.7803 38.9645 31.7803 39.8404 30.9024C40.7162 30.0246 40.7162 28.6013 39.8404 27.7234L37.1993 25.0762C36.7407 24.6166 36.1331 24.3977 35.5324 24.4193C34.932 24.3979 34.3246 24.6169 33.8663 25.0763L18.5425 40.4352C18.1688 40.8097 17.9545 41.2836 17.8997 41.772C17.7579 42.484 17.9624 43.2516 18.513 43.8035L33.8368 59.1624C34.3146 59.6413 34.9543 59.8589 35.5793 59.8154C36.2044 59.8591 36.8442 59.6414 37.3221 59.1625L52.6459 43.8035C53.5218 42.9257 53.5218 41.5024 52.6459 40.6245C51.7701 39.7466 50.35 39.7466 49.4741 40.6245L35.5795 54.551L23.191 42.1341L28.339 36.9743H55.9269C56.308 36.9743 56.6668 36.879 56.9811 36.7109C57.3211 36.6069 57.6414 36.4201 57.9103 36.1506C58.7862 35.2727 58.7862 33.8494 57.9103 32.9715Z" fill="white"/>
</svg>
