<svg width="97" height="17" viewBox="0 0 97 17" fill="none" xmlns="http://www.w3.org/2000/svg">
<path d="M13.896 0V16.752H10.536V9.624H3.36V16.752H0V0H3.36V6.888H10.536V0H13.896Z" fill="black"/>
<path d="M16.3391 10.056C16.3391 8.712 16.6031 7.52 17.1311 6.48C17.6751 5.44 18.4031 4.64 19.3151 4.08C20.2431 3.52 21.2751 3.24 22.4111 3.24C23.4031 3.24 24.2671 3.44 25.0031 3.84C25.7551 4.24 26.3551 4.744 26.8031 5.352V3.456H30.1871V16.752H26.8031V14.808C26.3711 15.432 25.7711 15.952 25.0031 16.368C24.2511 16.768 23.3791 16.968 22.3871 16.968C21.2671 16.968 20.2431 16.68 19.3151 16.104C18.4031 15.528 17.6751 14.72 17.1311 13.68C16.6031 12.624 16.3391 11.416 16.3391 10.056ZM26.8031 10.104C26.8031 9.288 26.6431 8.592 26.3231 8.016C26.0031 7.424 25.5711 6.976 25.0271 6.672C24.4831 6.352 23.8991 6.192 23.2751 6.192C22.6511 6.192 22.0751 6.344 21.5471 6.648C21.0191 6.952 20.5871 7.4 20.2511 7.992C19.9311 8.568 19.7711 9.256 19.7711 10.056C19.7711 10.856 19.9311 11.56 20.2511 12.168C20.5871 12.76 21.0191 13.216 21.5471 13.536C22.0911 13.856 22.6671 14.016 23.2751 14.016C23.8991 14.016 24.4831 13.864 25.0271 13.56C25.5711 13.24 26.0031 12.792 26.3231 12.216C26.6431 11.624 26.8031 10.92 26.8031 10.104Z" fill="black"/>
<path d="M36.8288 5.52C37.2608 4.816 37.8208 4.264 38.5088 3.864C39.2128 3.464 40.0127 3.264 40.9087 3.264V6.792H40.0208C38.9648 6.792 38.1648 7.04 37.6208 7.536C37.0928 8.032 36.8288 8.896 36.8288 10.128V16.752H33.4688V3.456H36.8288V5.52Z" fill="black"/>
<path d="M49.0759 16.968C47.7959 16.968 46.6439 16.688 45.6199 16.128C44.5959 15.552 43.7879 14.744 43.1959 13.704C42.6199 12.664 42.3319 11.464 42.3319 10.104C42.3319 8.744 42.6279 7.544 43.2199 6.504C43.8279 5.464 44.6519 4.664 45.6919 4.104C46.7319 3.528 47.8919 3.24 49.1719 3.24C50.4519 3.24 51.6119 3.528 52.6519 4.104C53.6919 4.664 54.5079 5.464 55.0999 6.504C55.7079 7.544 56.0119 8.744 56.0119 10.104C56.0119 11.464 55.6999 12.664 55.0759 13.704C54.4679 14.744 53.6359 15.552 52.5799 16.128C51.5399 16.688 50.3719 16.968 49.0759 16.968ZM49.0759 14.04C49.6839 14.04 50.2519 13.896 50.7799 13.608C51.3239 13.304 51.7559 12.856 52.0759 12.264C52.3959 11.672 52.5559 10.952 52.5559 10.104C52.5559 8.84 52.2199 7.872 51.5479 7.2C50.8919 6.512 50.0839 6.168 49.1239 6.168C48.1639 6.168 47.3559 6.512 46.6999 7.2C46.0599 7.872 45.7399 8.84 45.7399 10.104C45.7399 11.368 46.0519 12.344 46.6759 13.032C47.3159 13.704 48.1159 14.04 49.0759 14.04Z" fill="black"/>
<path d="M71.0286 3.456V16.752H67.6446V15.072C67.2126 15.648 66.6446 16.104 65.9406 16.44C65.2526 16.76 64.5006 16.92 63.6846 16.92C62.6446 16.92 61.7246 16.704 60.9246 16.272C60.1246 15.824 59.4926 15.176 59.0286 14.328C58.5806 13.464 58.3566 12.44 58.3566 11.256V3.456H61.7166V10.776C61.7166 11.832 61.9806 12.648 62.5086 13.224C63.0366 13.784 63.7566 14.064 64.6686 14.064C65.5966 14.064 66.3246 13.784 66.8526 13.224C67.3806 12.648 67.6446 11.832 67.6446 10.776V3.456H71.0286Z" fill="black"/>
<path d="M81.7118 3.264C83.2958 3.264 84.5758 3.768 85.5518 4.776C86.5278 5.768 87.0157 7.16 87.0157 8.952V16.752H83.6557V9.408C83.6557 8.352 83.3918 7.544 82.8638 6.984C82.3358 6.408 81.6158 6.12 80.7038 6.12C79.7758 6.12 79.0398 6.408 78.4958 6.984C77.9678 7.544 77.7038 8.352 77.7038 9.408V16.752H74.3438V3.456H77.7038V5.112C78.1518 4.536 78.7198 4.088 79.4078 3.768C80.1118 3.432 80.8798 3.264 81.7118 3.264Z" fill="black"/>
<circle cx="93.0156" cy="13.968" r="3" fill="#F04242"/>
</svg>
