<svg width="169" height="56" viewBox="0 0 169 56" fill="none" xmlns="http://www.w3.org/2000/svg">
<rect width="56" height="56" rx="4" fill="#003C8F"/>
<path d="M42 24.5359C44.6667 26.0755 44.6667 29.9245 42 31.4641L18 45.3205C15.3333 46.8601 12 44.9356 12 41.8564L12 14.1436C12 11.0644 15.3333 9.13989 18 10.6795L42 24.5359Z" fill="#FFE600"/>
<circle cx="39" cy="28" r="14" fill="#FF4081"/>
<path d="M85.896 19.516V36.268H82.536V29.14H75.36V36.268H72V19.516H75.36V26.404H82.536V19.516H85.896Z" fill="black"/>
<path d="M88.3391 29.572C88.3391 28.228 88.6031 27.036 89.1311 25.996C89.6751 24.956 90.4031 24.156 91.3151 23.596C92.2431 23.036 93.2751 22.756 94.4111 22.756C95.4031 22.756 96.2671 22.956 97.0031 23.356C97.7551 23.756 98.3551 24.26 98.8031 24.868V22.972H102.187V36.268H98.8031V34.324C98.3711 34.948 97.7711 35.468 97.0031 35.884C96.2511 36.284 95.3791 36.484 94.3871 36.484C93.2671 36.484 92.2431 36.196 91.3151 35.62C90.4031 35.044 89.6751 34.236 89.1311 33.196C88.6031 32.14 88.3391 30.932 88.3391 29.572ZM98.8031 29.62C98.8031 28.804 98.6431 28.108 98.3231 27.532C98.0031 26.94 97.5711 26.492 97.0271 26.188C96.4831 25.868 95.8991 25.708 95.2751 25.708C94.6511 25.708 94.0751 25.86 93.5471 26.164C93.0191 26.468 92.5871 26.916 92.2511 27.508C91.9311 28.084 91.7711 28.772 91.7711 29.572C91.7711 30.372 91.9311 31.076 92.2511 31.684C92.5871 32.276 93.0191 32.732 93.5471 33.052C94.0911 33.372 94.6671 33.532 95.2751 33.532C95.8991 33.532 96.4831 33.38 97.0271 33.076C97.5711 32.756 98.0031 32.308 98.3231 31.732C98.6431 31.14 98.8031 30.436 98.8031 29.62Z" fill="black"/>
<path d="M108.829 25.036C109.261 24.332 109.821 23.78 110.509 23.38C111.213 22.98 112.013 22.78 112.909 22.78V26.308H112.021C110.965 26.308 110.165 26.556 109.621 27.052C109.093 27.548 108.829 28.412 108.829 29.644V36.268H105.469V22.972H108.829V25.036Z" fill="black"/>
<path d="M121.076 36.484C119.796 36.484 118.644 36.204 117.62 35.644C116.596 35.068 115.788 34.26 115.196 33.22C114.62 32.18 114.332 30.98 114.332 29.62C114.332 28.26 114.628 27.06 115.22 26.02C115.828 24.98 116.652 24.18 117.692 23.62C118.732 23.044 119.892 22.756 121.172 22.756C122.452 22.756 123.612 23.044 124.652 23.62C125.692 24.18 126.508 24.98 127.1 26.02C127.708 27.06 128.012 28.26 128.012 29.62C128.012 30.98 127.7 32.18 127.076 33.22C126.468 34.26 125.636 35.068 124.58 35.644C123.54 36.204 122.372 36.484 121.076 36.484ZM121.076 33.556C121.684 33.556 122.252 33.412 122.78 33.124C123.324 32.82 123.756 32.372 124.076 31.78C124.396 31.188 124.556 30.468 124.556 29.62C124.556 28.356 124.22 27.388 123.548 26.716C122.892 26.028 122.084 25.684 121.124 25.684C120.164 25.684 119.356 26.028 118.7 26.716C118.06 27.388 117.74 28.356 117.74 29.62C117.74 30.884 118.052 31.86 118.676 32.548C119.316 33.22 120.116 33.556 121.076 33.556Z" fill="black"/>
<path d="M143.029 22.972V36.268H139.645V34.588C139.213 35.164 138.645 35.62 137.941 35.956C137.253 36.276 136.501 36.436 135.685 36.436C134.645 36.436 133.725 36.22 132.925 35.788C132.125 35.34 131.493 34.692 131.029 33.844C130.581 32.98 130.357 31.956 130.357 30.772V22.972H133.717V30.292C133.717 31.348 133.981 32.164 134.509 32.74C135.037 33.3 135.757 33.58 136.669 33.58C137.597 33.58 138.325 33.3 138.853 32.74C139.381 32.164 139.645 31.348 139.645 30.292V22.972H143.029Z" fill="black"/>
<path d="M153.712 22.78C155.296 22.78 156.576 23.284 157.552 24.292C158.528 25.284 159.016 26.676 159.016 28.468V36.268H155.656V28.924C155.656 27.868 155.392 27.06 154.864 26.5C154.336 25.924 153.616 25.636 152.704 25.636C151.776 25.636 151.04 25.924 150.496 26.5C149.968 27.06 149.704 27.868 149.704 28.924V36.268H146.344V22.972H149.704V24.628C150.152 24.052 150.72 23.604 151.408 23.284C152.112 22.948 152.88 22.78 153.712 22.78Z" fill="black"/>
<circle cx="165.016" cy="33.484" r="3" fill="#FF4081"/>
</svg>
