<svg width="241" height="360" viewBox="0 0 241 360" fill="none" xmlns="http://www.w3.org/2000/svg">
<path d="M0.612305 82.6716C0.612305 78.1075 3.57839 74.0731 7.93465 72.7118L227.065 4.2335C233.784 2.13373 240.612 7.15357 240.612 14.1933V345.807C240.612 352.846 233.784 357.866 227.065 355.766L7.93465 287.288C3.57839 285.927 0.612305 281.892 0.612305 277.328V82.6716Z" fill="#E4D86C"/>
<g clip-path="url(#clip0_519_12)">
<path d="M89.9294 174.431L85.019 174.416C84.8945 174.416 84.7933 174.315 84.7933 174.19V149.734C84.7933 149.153 84.4652 148.623 83.9458 148.363L78.3786 145.579L83.9458 142.796C84.465 142.536 84.7933 142.005 84.7933 141.425V135.292C84.7933 135.168 84.8945 135.066 85.019 135.066H152.833C152.958 135.066 153.059 135.168 153.059 135.292V169.831C153.059 170.678 153.745 171.364 154.592 171.364C155.439 171.364 156.125 170.678 156.125 169.831V135.292C156.125 133.477 154.648 132 152.833 132H85.019C83.2038 132 81.7271 133.477 81.7271 135.292V140.477L74.2647 144.208C73.7455 144.468 73.4172 144.998 73.4172 145.579C73.4172 146.16 73.7451 146.691 74.2647 146.95L81.7271 150.682V174.19C81.7271 176.005 83.204 177.482 85.0145 177.482L89.9202 177.497C90.7693 177.497 91.4553 176.813 91.4578 175.968C91.4605 175.122 90.7759 174.433 89.9294 174.431Z" fill="black"/>
<path d="M167.807 182.277C167.807 177.95 164.287 174.431 159.961 174.431L140.768 174.431C144.153 168.205 145.996 160.474 145.996 152.342C145.996 148.016 142.476 144.496 138.15 144.496C133.824 144.496 130.304 148.016 130.304 152.342C130.304 164.522 120.395 174.431 108.216 174.431H96.0569C95.21 174.431 94.5238 175.117 94.5238 175.964V226.467C94.5238 227.314 95.21 228 96.0569 228H108.216C109.063 228 109.749 227.314 109.749 226.467V177.449C122.908 176.654 133.37 165.698 133.37 152.342C133.37 149.707 135.515 147.562 138.15 147.562C140.786 147.562 142.93 149.707 142.93 152.342C142.93 160.954 140.748 169.046 136.787 175.127C136.48 175.599 136.456 176.2 136.724 176.695C136.992 177.189 137.509 177.497 138.072 177.497L159.961 177.497C162.597 177.497 164.741 179.641 164.741 182.277C164.741 184.912 162.597 187.056 159.961 187.056H152.204C151.357 187.056 150.671 187.743 150.671 188.59C150.671 189.436 151.357 190.123 152.204 190.123H157.375C160.011 190.123 162.155 192.267 162.155 194.902C162.155 197.538 160.011 199.682 157.375 199.682H152.204C151.357 199.682 150.671 200.369 150.671 201.215C150.671 202.062 151.357 202.749 152.204 202.749H154.789C157.425 202.749 159.569 204.893 159.569 207.528C159.569 210.164 157.425 212.308 154.789 212.308H152.204C151.357 212.308 150.671 212.995 150.671 213.841C150.671 214.688 151.357 215.374 152.204 215.374C154.839 215.374 156.984 217.518 156.984 220.154C156.984 222.79 154.839 224.934 152.204 224.934H114.349C113.502 224.934 112.816 225.62 112.816 226.467C112.816 227.314 113.502 228 114.349 228H152.204C156.53 228 160.05 224.481 160.05 220.154C160.05 218.057 159.223 216.15 157.878 214.741C160.673 213.539 162.636 210.759 162.636 207.528C162.636 205.431 161.809 203.524 160.464 202.115C163.259 200.913 165.221 198.133 165.221 194.903C165.221 192.806 164.394 190.898 163.05 189.489C165.845 188.287 167.807 185.507 167.807 182.277ZM106.683 224.934H97.5904V177.497H106.683V224.934Z" fill="black"/>
<path d="M147.605 220.334V182.096C147.605 181.25 146.918 180.563 146.072 180.563C145.225 180.563 144.538 181.25 144.538 182.096V220.334C144.538 221.181 145.225 221.868 146.072 221.868C146.918 221.868 147.605 221.181 147.605 220.334Z" fill="black"/>
</g>
<defs>
<clipPath id="clip0_519_12">
<rect width="96" height="96" fill="white" transform="translate(72.6123 132)"/>
</clipPath>
</defs>
</svg>
