<?xml version="1.0" encoding="UTF-8" standalone="no"?>
<!-- Created with Inkscape (http://www.inkscape.org/) -->

<svg
   width="512"
   height="512"
   viewBox="0 0 512 512"
   version="1.1"
   id="svg5"
   xml:space="preserve"
   inkscape:version="1.2.1 (ef4d3fba62, 2022-07-19, custom)"
   sodipodi:docname="google-my-business-dev.svg"
   xmlns:inkscape="http://www.inkscape.org/namespaces/inkscape"
   xmlns:sodipodi="http://sodipodi.sourceforge.net/DTD/sodipodi-0.dtd"
   xmlns="http://www.w3.org/2000/svg"
   xmlns:svg="http://www.w3.org/2000/svg"><sodipodi:namedview
     id="namedview7"
     pagecolor="#ffffff"
     bordercolor="#666666"
     borderopacity="1.0"
     inkscape:showpageshadow="2"
     inkscape:pageopacity="0.0"
     inkscape:pagecheckerboard="0"
     inkscape:deskcolor="#d1d1d1"
     inkscape:document-units="px"
     showgrid="false"
     inkscape:zoom="0.32869417"
     inkscape:cx="-56.283323"
     inkscape:cy="214.4851"
     inkscape:window-width="1366"
     inkscape:window-height="634"
     inkscape:window-x="0"
     inkscape:window-y="0"
     inkscape:window-maximized="1"
     inkscape:current-layer="layer1" /><defs
     id="defs2" /><g
     inkscape:label="Layer 1"
     inkscape:groupmode="layer"
     id="layer1"><g
       fill="none"
       fill-rule="evenodd"
       id="g179"
       transform="matrix(0.48120301,0,0,0.48120301,-1.32e-6,32.348869)"><g
         fill-rule="nonzero"
         id="g167"><rect
           fill="#4989f5"
           height="696.14001"
           rx="36.880001"
           width="931"
           x="53.450001"
           y="232.98"
           id="rect153"
           style="fill:#ffffff;fill-opacity:1;stroke:#000000;stroke-opacity:1;stroke-width:10.39062495;stroke-dasharray:none" /><path
           d="M 936.81,227.75 H 100.06 c -25.92,0 -46.09,200.6 -46.09,226.52 L 512.2,929.12 h 424.61 c 26,-0.071 47.059,-21.13 47.13,-47.13 V 274.87 c -0.077,-25.996 -21.134,-47.049 -47.13,-47.12 z"
           fill="url(#a)"
           id="path155" /><path
           d="m 266.03,349.56 h 266 V 0.44 H 305.86 Z"
           fill="#3c4ba6"
           id="path157"
           style="stroke-width:10.39062495;stroke-dasharray:none;fill:#ffffff;fill-opacity:1;stroke:#000000;stroke-opacity:1" /><path
           d="m 798.03,349.56 h -266 V 0.44 H 758.2 Z m 186.42,-282.94 0.33,1.19 C 984.7,67.39 984.54,67 984.45,66.62 Z"
           fill="#7babf7"
           id="path159"
           style="display:inline;stroke-width:10.39062495;stroke-dasharray:none;fill:#ffffff;fill-opacity:1;stroke:#000000;stroke-opacity:1" /><path
           d="m 984.78,67.8 -0.33,-1.19 C 976.017,27.993 941.837,0.455 902.31,0.43 H 758.2 L 798,349.56 h 266 z"
           fill="#3f51b5"
           id="path161"
           style="stroke-width:10.39062495;stroke-dasharray:none;fill:#ffffff;fill-opacity:1;stroke:#000000;stroke-opacity:1" /><path
           d="m 79.61,66.62 -0.33,1.19 c 0.08,-0.42 0.24,-0.81 0.33,-1.19 z"
           fill="#7babf7"
           id="path163" /><path
           d="M 79.27,67.8 79.6,66.61 C 88.033,27.993 122.213,0.455 161.74,0.43 H 305.86 L 266,349.56 H 0 Z"
           fill="#7babf7"
           id="path165"
           style="stroke-width:10.39062495;stroke-dasharray:none;fill:#ffffff;fill-opacity:1;stroke:#000000;stroke-opacity:1" /></g><path
         d="m 266.48,349.47 c 0,73.412 -59.513,132.925 -132.925,132.925 C 60.143,482.395 0.63,422.882 0.63,349.47 Z"
         fill="#709be0"
         id="path169"
         style="fill:#ffffff;fill-opacity:1;stroke:#000000;stroke-opacity:1;stroke-width:10.39062495;stroke-dasharray:none" /><path
         d="m 532.33,349.47 c 0,73.412 -59.513,132.925 -132.925,132.925 -73.412,0 -132.925,-59.513 -132.925,-132.925 z"
         fill="#3c4ba6"
         id="path171"
         style="fill:#ffffff;fill-opacity:1;stroke:#000000;stroke-opacity:1;stroke-width:10.39062495;stroke-dasharray:none" /><path
         d="m 798.18,349.47 c 0,73.412 -59.513,132.925 -132.925,132.925 -73.412,0 -132.925,-59.513 -132.925,-132.925 z"
         fill="#709be0"
         id="path173"
         style="fill:#ffffff;fill-opacity:1;stroke:#000000;stroke-opacity:1;stroke-width:10.39062495;stroke-dasharray:none" /><path
         d="m 1064,349.47 c 0,73.412 -59.513,132.925 -132.925,132.925 -73.412,0 -132.925,-59.513 -132.925,-132.925 z"
         fill="#3c4ba6"
         id="path175"
         style="fill:#ffffff;fill-opacity:1;stroke:#000000;stroke-opacity:1;stroke-width:10.39062495;stroke-dasharray:none" /><path
         d="m 931.08,709.6 c -0.47,-6.33 -1.25,-12.11 -2.36,-19.49 h -145 c 0,20.28 0,42.41 -0.08,62.7 h 84 a 73.05,73.05 0 0 1 -30.75,46.89 c 0,0 0,-0.35 -0.06,-0.36 a 88,88 0 0 1 -34,13.27 99.85,99.85 0 0 1 -36.79,-0.16 91.9,91.9 0 0 1 -34.31,-14.87 95.72,95.72 0 0 1 -33.73,-43.1 c -0.52,-1.35 -1,-2.71 -1.49,-4.09 v -0.15 l 0.13,-0.1 A 93,93 0 0 1 696.59,690.3 96.27,96.27 0 0 1 718.9,654 c 23.587,-24.399 58.829,-33.576 91.32,-23.78 a 83,83 0 0 1 33.23,19.56 l 28.34,-28.34 c 5,-5.05 10.19,-9.94 15,-15.16 a 149.78,149.78 0 0 0 -49.64,-30.74 156.08,156.08 0 0 0 -103.83,-0.91 c -1.173,0.4 -2.34,0.817 -3.5,1.25 A 155.18,155.18 0 0 0 646,651 152.61,152.61 0 0 0 632.58,689.78 c -16.052,79.772 32.623,158.294 111.21,179.4 25.69,6.88 53,6.71 78.89,0.83 a 139.88,139.88 0 0 0 63.14,-32.81 c 18.64,-17.15 32,-40 39,-64.27 a 179,179 0 0 0 6.26,-63.33 z"
         fill="#ffffff"
         fill-rule="nonzero"
         id="path177"
         style="fill:#000000;fill-opacity:1" /></g></g></svg>
