<?xml version="1.0" encoding="UTF-8" standalone="no"?>
<!-- Created with Inkscape (http://www.inkscape.org/) -->

<svg
   width="512"
   height="512"
   viewBox="0 0 512 512"
   version="1.1"
   id="svg5"
   xml:space="preserve"
   inkscape:version="1.2.1 (ef4d3fba62, 2022-07-19, custom)"
   sodipodi:docname="google-analytics-dev.svg"
   xmlns:inkscape="http://www.inkscape.org/namespaces/inkscape"
   xmlns:sodipodi="http://sodipodi.sourceforge.net/DTD/sodipodi-0.dtd"
   xmlns="http://www.w3.org/2000/svg"
   xmlns:svg="http://www.w3.org/2000/svg"><sodipodi:namedview
     id="namedview7"
     pagecolor="#ffffff"
     bordercolor="#666666"
     borderopacity="1.0"
     inkscape:showpageshadow="2"
     inkscape:pageopacity="0.0"
     inkscape:pagecheckerboard="0"
     inkscape:deskcolor="#d1d1d1"
     inkscape:document-units="px"
     showgrid="false"
     inkscape:zoom="0.65738834"
     inkscape:cx="99.636693"
     inkscape:cy="382.57448"
     inkscape:window-width="1366"
     inkscape:window-height="634"
     inkscape:window-x="0"
     inkscape:window-y="0"
     inkscape:window-maximized="1"
     inkscape:current-layer="layer1" /><defs
     id="defs2" /><g
     inkscape:label="Layer 1"
     inkscape:groupmode="layer"
     id="layer1"><g
       id="g154"
       transform="matrix(0.21062347,0,0,0.21062347,24.744971,-0.00459744)"
       style="fill:#ffffff;fill-opacity:1">
	<path
   class="st0"
   d="m 2195.9,2126.7 c 0.9,166.9 -133.7,302.8 -300.5,303.7 -12.4,0.1 -24.9,-0.6 -37.2,-2.1 -154.8,-22.9 -268.2,-157.6 -264.4,-314 V 316.1 c -3.7,-156.6 110,-291.3 264.9,-314 165.7,-19.4 315.8,99.2 335.2,264.9 1.4,12.2 2.1,24.4 2,36.7 z"
   id="path150"
   style="fill:#ffffff;fill-opacity:1" />
	<path
   class="st1"
   d="m 301.1,1828.7 c 166.3,0 301.1,134.8 301.1,301.1 0,166.3 -134.8,301.1 -301.1,301.1 C 134.8,2430.9 0,2296.1 0,2129.8 0,1963.5 134.8,1828.7 301.1,1828.7 Z m 792.2,-912.5 c -167.1,9.2 -296.7,149.3 -292.8,316.6 v 808.7 c 0,219.5 96.6,352.7 238.1,381.1 163.3,33.1 322.4,-72.4 355.5,-235.7 4.1,-20 6.1,-40.3 6,-60.7 v -907.4 c 0.3,-166.9 -134.7,-302.4 -301.6,-302.7 -1.7,0 -3.5,0 -5.2,0.1 z"
   id="path152"
   style="fill:#ffffff;fill-opacity:1" />
</g></g><style
     type="text/css"
     id="style148">
	.st0{fill:#F9AB00;}
	.st1{fill:#E37400;}
</style></svg>
