<?xml version="1.0" encoding="UTF-8" standalone="no"?>
<!-- Created with Inkscape (http://www.inkscape.org/) -->

<svg
   width="512"
   height="512"
   viewBox="0 0 512 512"
   version="1.1"
   id="svg5"
   xml:space="preserve"
   inkscape:version="1.2.1 (ef4d3fba62, 2022-07-19, custom)"
   sodipodi:docname="instagram-dev.svg"
   xmlns:inkscape="http://www.inkscape.org/namespaces/inkscape"
   xmlns:sodipodi="http://sodipodi.sourceforge.net/DTD/sodipodi-0.dtd"
   xmlns="http://www.w3.org/2000/svg"
   xmlns:svg="http://www.w3.org/2000/svg"><sodipodi:namedview
     id="namedview7"
     pagecolor="#ffffff"
     bordercolor="#666666"
     borderopacity="1.0"
     inkscape:showpageshadow="2"
     inkscape:pageopacity="0.0"
     inkscape:pagecheckerboard="0"
     inkscape:deskcolor="#d1d1d1"
     inkscape:document-units="px"
     showgrid="false"
     inkscape:zoom="0.46484375"
     inkscape:cx="192.53782"
     inkscape:cy="203.29412"
     inkscape:window-width="1366"
     inkscape:window-height="634"
     inkscape:window-x="0"
     inkscape:window-y="0"
     inkscape:window-maximized="1"
     inkscape:current-layer="g176" /><defs
     id="defs2"><radialGradient
       id="a"
       cx="332.14"
       cy="2511.81"
       r="3263.54"
       gradientUnits="userSpaceOnUse"><stop
         offset=".09"
         stop-color="#fa8f21"
         id="stop148" /><stop
         offset=".78"
         stop-color="#d82d7e"
         id="stop150" /></radialGradient><radialGradient
       id="b"
       cx="1516.14"
       cy="2623.81"
       r="2572.12"
       gradientUnits="userSpaceOnUse"><stop
         offset=".64"
         stop-color="#8c3aaa"
         stop-opacity="0"
         id="stop153" /><stop
         offset="1"
         stop-color="#8c3aaa"
         id="stop155" /></radialGradient></defs><g
     inkscape:label="Layer 1"
     inkscape:groupmode="layer"
     id="layer1"><g
       id="g176"
       transform="matrix(0.20480819,0,0,0.20480819,2.9094999e-6,-0.0102375)"
       style="display:inline"><path
         d="m 833.4,1250 c 0,-230.11 186.49,-416.7 416.6,-416.7 230.11,0 416.7,186.59 416.7,416.7 0,230.11 -186.59,416.7 -416.7,416.7 -230.11,0 -416.6,-186.59 -416.6,-416.7 m -225.26,0 c 0,354.5 287.36,641.86 641.86,641.86 354.5,0 641.86,-287.36 641.86,-641.86 C 1891.86,895.5 1604.5,608.14 1250,608.14 895.5,608.14 608.14,895.5 608.14,1250 M 1767.27,582.69 a 150,150 0 1 0 150.06,-149.94 h -0.06 a 150.07,150.07 0 0 0 -150,149.94 M 745,2267.47 c -121.87,-5.55 -188.11,-25.85 -232.13,-43 -58.36,-22.72 -100,-49.78 -143.78,-93.5 -43.78,-43.72 -70.88,-85.32 -93.5,-143.68 -17.16,-44 -37.46,-110.26 -43,-232.13 -6.06,-131.76 -7.27,-171.34 -7.27,-505.15 0,-333.81 1.31,-373.28 7.27,-505.15 5.55,-121.87 26,-188 43,-232.13 22.72,-58.36 49.78,-100 93.5,-143.78 43.72,-43.78 85.32,-70.88 143.78,-93.5 44,-17.16 110.26,-37.46 232.13,-43 131.76,-6.06 171.34,-7.27 505,-7.27 333.66,0 373.28,1.31 505.15,7.27 121.87,5.55 188,26 232.13,43 58.36,22.62 100,49.78 143.78,93.5 43.78,43.72 70.78,85.42 93.5,143.78 17.16,44 37.46,110.26 43,232.13 6.06,131.87 7.27,171.34 7.27,505.15 0,333.81 -1.21,373.28 -7.27,505.15 -5.55,121.87 -25.95,188.11 -43,232.13 -22.72,58.36 -49.78,100 -93.5,143.68 -43.72,43.68 -85.42,70.78 -143.78,93.5 -44,17.16 -110.26,37.46 -232.13,43 -131.76,6.06 -171.34,7.27 -505.15,7.27 -333.81,0 -373.28,-1.21 -505,-7.27 M 734.65,7.57 C 601.58,13.63 510.65,34.73 431.24,65.63 349,97.54 279.38,140.35 209.81,209.81 140.24,279.27 97.54,349 65.63,431.24 34.73,510.7 13.63,601.58 7.57,734.65 1.41,867.93 0,910.54 0,1250 c 0,339.46 1.41,382.07 7.57,515.35 6.06,133.08 27.16,223.95 58.06,303.41 31.91,82.19 74.62,152 144.18,221.43 69.56,69.43 139.19,112.18 221.43,144.18 79.56,30.9 170.34,52 303.41,58.06 133.35,6.06 175.89,7.57 515.35,7.57 339.46,0 382.07,-1.41 515.35,-7.57 133.08,-6.06 223.95,-27.16 303.41,-58.06 82.19,-32 151.86,-74.72 221.43,-144.18 69.57,-69.46 112.18,-139.24 144.18,-221.43 30.9,-79.46 52.1,-170.34 58.06,-303.41 6.06,-133.38 7.47,-175.89 7.47,-515.35 0,-339.46 -1.41,-382.07 -7.47,-515.35 -6.06,-133.08 -27.16,-224 -58.06,-303.41 -32,-82.19 -74.72,-151.86 -144.18,-221.43 C 2220.73,140.24 2150.95,97.54 2068.86,65.63 1989.3,34.73 1898.42,13.53 1765.45,7.57 1632.17,1.51 1589.56,0 1250.1,0 910.64,0 868,1.41 734.65,7.57"
         fill="url(#a)"
         id="path160"
         style="display:inline;fill:#ffffff;fill-opacity:1" /><path
         d="m 833.4,1250 c 0,-230.11 186.49,-416.7 416.6,-416.7 230.11,0 416.7,186.59 416.7,416.7 0,230.11 -186.59,416.7 -416.7,416.7 -230.11,0 -416.6,-186.59 -416.6,-416.7 m -225.26,0 c 0,354.5 287.36,641.86 641.86,641.86 354.5,0 641.86,-287.36 641.86,-641.86 C 1891.86,895.5 1604.5,608.14 1250,608.14 895.5,608.14 608.14,895.5 608.14,1250 M 1767.27,582.69 a 150,150 0 1 0 150.06,-149.94 h -0.06 a 150.07,150.07 0 0 0 -150,149.94 M 745,2267.47 c -121.87,-5.55 -188.11,-25.85 -232.13,-43 -58.36,-22.72 -100,-49.78 -143.78,-93.5 -43.78,-43.72 -70.88,-85.32 -93.5,-143.68 -17.16,-44 -37.46,-110.26 -43,-232.13 -6.06,-131.76 -7.27,-171.34 -7.27,-505.15 0,-333.81 1.31,-373.28 7.27,-505.15 5.55,-121.87 26,-188 43,-232.13 22.72,-58.36 49.78,-100 93.5,-143.78 43.72,-43.78 85.32,-70.88 143.78,-93.5 44,-17.16 110.26,-37.46 232.13,-43 131.76,-6.06 171.34,-7.27 505,-7.27 333.66,0 373.28,1.31 505.15,7.27 121.87,5.55 188,26 232.13,43 58.36,22.62 100,49.78 143.78,93.5 43.78,43.72 70.78,85.42 93.5,143.78 17.16,44 37.46,110.26 43,232.13 6.06,131.87 7.27,171.34 7.27,505.15 0,333.81 -1.21,373.28 -7.27,505.15 -5.55,121.87 -25.95,188.11 -43,232.13 -22.72,58.36 -49.78,100 -93.5,143.68 -43.72,43.68 -85.42,70.78 -143.78,93.5 -44,17.16 -110.26,37.46 -232.13,43 -131.76,6.06 -171.34,7.27 -505.15,7.27 -333.81,0 -373.28,-1.21 -505,-7.27 M 734.65,7.57 C 601.58,13.63 510.65,34.73 431.24,65.63 349,97.54 279.38,140.35 209.81,209.81 140.24,279.27 97.54,349 65.63,431.24 34.73,510.7 13.63,601.58 7.57,734.65 1.41,867.93 0,910.54 0,1250 c 0,339.46 1.41,382.07 7.57,515.35 6.06,133.08 27.16,223.95 58.06,303.41 31.91,82.19 74.62,152 144.18,221.43 69.56,69.43 139.19,112.18 221.43,144.18 79.56,30.9 170.34,52 303.41,58.06 133.35,6.06 175.89,7.57 515.35,7.57 339.46,0 382.07,-1.41 515.35,-7.57 133.08,-6.06 223.95,-27.16 303.41,-58.06 82.19,-32 151.86,-74.72 221.43,-144.18 69.57,-69.46 112.18,-139.24 144.18,-221.43 30.9,-79.46 52.1,-170.34 58.06,-303.41 6.06,-133.38 7.47,-175.89 7.47,-515.35 0,-339.46 -1.41,-382.07 -7.47,-515.35 -6.06,-133.08 -27.16,-224 -58.06,-303.41 -32,-82.19 -74.72,-151.86 -144.18,-221.43 C 2220.73,140.24 2150.95,97.54 2068.86,65.63 1989.3,34.73 1898.42,13.53 1765.45,7.57 1632.17,1.51 1589.56,0 1250.1,0 910.64,0 868,1.41 734.65,7.57"
         fill="url(#b)"
         id="path162"
         style="display:none;fill:url(#b)" /></g></g></svg>
